<?xml version="1.0" standalone="no"?>
<!DOCTYPE svg PUBLIC "-//W3C//DTD SVG 20010904//EN"
 "http://www.w3.org/TR/2001/REC-SVG-20010904/DTD/svg10.dtd">
<svg version="1.0" xmlns="http://www.w3.org/2000/svg"
 width="2816.000000pt" height="1536.000000pt" viewBox="0 0 2816.000000 1536.000000"
 preserveAspectRatio="xMidYMid meet">

<g transform="translate(0.000000,1536.000000) scale(0.100000,-0.100000)"
fill="#000000" stroke="none">
<path d="M13908 11760 c-374 -28 -689 -175 -1018 -474 -143 -130 -650 -630
-650 -641 0 -6 28 -36 63 -66 34 -29 113 -98 175 -153 l113 -99 162 159 c321
317 494 478 599 557 124 92 271 163 427 204 176 47 520 40 646 -11 l30 -13
-25 -8 c-51 -16 -185 -87 -255 -136 -190 -131 -289 -254 -468 -579 -104 -190
-447 -846 -447 -855 1 -13 357 -381 363 -375 2 3 50 93 107 200 108 205 257
486 320 605 21 39 70 130 109 203 134 251 213 352 348 442 112 75 183 95 333
95 107 0 133 -4 183 -24 104 -41 206 -119 383 -293 l171 -168 129 112 c71 62
151 130 177 152 26 21 47 44 47 51 0 12 -467 472 -650 641 -311 288 -581 422
-925 463 -132 15 -325 20 -447 11z"/>
<path d="M11250 10684 c-14 -2 -56 -9 -95 -15 -220 -36 -480 -173 -679 -359
-84 -79 -210 -227 -279 -329 -42 -62 -671 -1106 -729 -1210 -17 -30 -19 -31
-90 -31 -135 0 -300 -51 -413 -125 -145 -97 -233 -210 -385 -495 -45 -85 -106
-198 -135 -250 -29 -52 -98 -180 -155 -285 -171 -315 -562 -1025 -662 -1200
-22 -38 -51 -89 -65 -113 l-25 -43 884 4 c941 4 960 5 1263 58 252 44 519 126
770 238 177 78 319 161 469 273 108 80 328 288 361 341 20 32 31 14 -151 262
-52 72 -103 141 -113 154 l-17 24 -49 -69 c-108 -152 -332 -356 -500 -456
-256 -153 -580 -267 -925 -327 -208 -37 -414 -52 -789 -58 -355 -6 -364 -6
-357 13 4 10 68 134 143 274 75 140 209 392 298 560 267 503 298 559 342 615
98 125 280 150 410 56 108 -78 151 -269 103 -456 -20 -79 -65 -172 -287 -595
-99 -188 -115 -226 -100 -228 47 -9 436 63 557 103 60 20 52 7 380 650 238
468 273 520 370 564 55 25 111 26 176 4 79 -27 143 -101 269 -313 214 -360
406 -625 652 -898 l62 -69 -123 -114 c-68 -63 -235 -225 -372 -361 l-249 -248
360 0 360 1 146 142 c604 591 994 820 1944 1147 460 158 596 231 702 374 93
126 108 273 41 407 -75 150 -165 222 -429 344 -209 97 -266 129 -389 221 -119
88 -281 243 -504 481 -401 428 -772 815 -856 892 -273 250 -461 358 -740 426
-62 16 -344 29 -400 19z m271 -488 c125 -23 283 -102 414 -210 153 -124 483
-460 1009 -1025 225 -241 426 -416 619 -537 56 -35 200 -112 320 -171 119 -59
217 -110 217 -114 0 -8 -158 -82 -245 -115 -38 -14 -185 -66 -325 -114 -320
-110 -483 -173 -649 -249 -72 -32 -131 -57 -131 -54 0 5 82 162 371 709 33 61
59 116 59 122 0 6 -21 30 -47 54 -27 24 -110 103 -185 177 -76 74 -139 133
-142 130 -15 -17 -533 -986 -653 -1224 -34 -66 -72 -139 -86 -163 l-24 -43
-49 54 c-170 186 -322 397 -529 737 -75 124 -155 249 -178 279 -54 70 -150
151 -234 197 -38 21 -69 38 -71 40 -2 1 215 221 482 488 267 268 488 497 492
508 5 17 -5 31 -47 70 -124 112 -281 218 -322 218 -8 0 -43 -30 -77 -67 -35
-38 -180 -187 -324 -333 -621 -630 -1028 -1050 -1087 -1120 -34 -41 -66 -76
-70 -78 -4 -2 -15 10 -24 27 -8 17 -35 55 -60 86 -25 30 -45 57 -45 60 0 14
659 1102 718 1185 88 125 266 304 365 368 167 108 340 143 538 108z"/>
<path d="M12082 9488 c-30 -53 -195 -347 -424 -756 -65 -117 -123 -223 -129
-236 -9 -20 -1 -40 61 -151 97 -174 193 -328 207 -332 6 -2 22 11 36 29 59 79
637 1086 637 1110 0 13 -332 380 -349 386 -5 2 -23 -21 -39 -50z"/>
<path d="M16595 10680 c-207 -30 -424 -126 -622 -273 -109 -82 -354 -307 -423
-389 -77 -92 -641 -649 -653 -645 -6 2 -50 71 -97 153 -47 82 -149 253 -226
379 -78 127 -149 246 -159 265 l-18 34 -22 -45 c-13 -25 -73 -139 -134 -254
-61 -115 -111 -217 -111 -225 0 -22 452 -775 487 -812 44 -46 105 -85 266
-169 200 -105 305 -177 408 -279 256 -253 305 -580 137 -915 -51 -102 -148
-249 -251 -379 -80 -101 -558 -587 -777 -789 l-115 -106 1793 -3 c985 -2 1792
0 1792 3 0 4 -11 10 -24 13 -37 9 -303 129 -381 172 -94 51 -225 135 -311 200
l-72 54 -496 0 c-273 0 -496 3 -496 8 0 4 17 20 38 37 203 160 445 413 622
650 129 174 274 388 345 510 86 147 169 268 205 299 77 64 155 85 235 62 110
-33 147 -84 375 -531 167 -326 214 -417 362 -688 66 -121 117 -221 114 -224
-9 -10 -237 57 -355 104 -143 56 -236 106 -377 200 -192 127 -328 259 -437
420 -23 34 -46 62 -52 62 -5 0 -47 -53 -93 -118 -46 -65 -112 -155 -148 -200
-47 -58 -63 -85 -57 -96 23 -41 225 -244 316 -316 381 -308 836 -495 1397
-575 268 -38 444 -44 1252 -44 434 0 788 2 788 5 0 3 -53 99 -119 213 -168
293 -502 897 -643 1162 -66 124 -126 234 -133 245 -6 11 -45 83 -85 160 -215
413 -295 517 -479 625 -101 59 -215 91 -348 97 l-112 6 -60 107 c-33 59 -114
197 -179 306 -105 176 -195 328 -335 569 -96 165 -195 315 -253 385 -86 104
-276 288 -354 342 -156 110 -350 193 -519 222 -98 17 -313 20 -406 6z m349
-485 c141 -30 300 -129 434 -270 124 -130 202 -247 543 -817 183 -304 336
-560 342 -569 8 -12 -1 -29 -37 -74 -26 -32 -55 -73 -64 -91 -8 -19 -18 -34
-21 -34 -3 1 -26 27 -50 59 -48 65 -237 267 -581 623 -123 128 -337 350 -475
493 -137 143 -294 305 -347 360 l-97 100 -57 -28 c-79 -39 -171 -107 -261
-191 l-75 -71 233 -240 c128 -132 351 -360 496 -506 l263 -266 -77 -38 c-88
-45 -209 -154 -276 -248 -24 -34 -102 -161 -174 -282 -205 -345 -346 -534
-578 -774 -116 -120 -353 -336 -360 -329 -2 2 12 26 31 54 106 148 202 360
246 545 18 78 22 123 22 269 0 161 -2 183 -27 275 -69 247 -199 454 -398 631
-79 70 -231 175 -316 218 -29 14 -53 27 -53 29 0 1 45 40 100 87 55 47 170
159 257 250 562 589 762 754 1003 826 91 28 248 32 354 9z m1946 -1975 c100
-50 142 -113 400 -606 84 -159 165 -311 180 -339 74 -132 310 -587 310 -597 0
-8 -87 -9 -332 -4 -183 4 -357 10 -386 14 l-54 7 -155 290 c-192 359 -328 630
-360 714 -66 176 -24 398 92 487 87 66 213 80 305 34z"/>
<path d="M15899 9392 c-80 -86 -160 -174 -178 -195 l-33 -37 68 -123 c75 -136
426 -751 511 -895 30 -51 64 -104 76 -118 l22 -25 51 83 c153 246 234 382 234
391 0 6 -40 81 -89 167 -48 85 -118 207 -153 270 -72 127 -360 634 -363 637
-1 2 -67 -68 -146 -155z"/>
<path d="M10370 5587 c-67 -35 -105 -102 -105 -182 0 -50 5 -69 28 -103 75
-113 225 -136 324 -49 74 65 91 156 48 244 -38 75 -89 107 -179 111 -60 3 -78
0 -116 -21z"/>
<path d="M14829 5587 c-125 -66 -145 -235 -39 -331 90 -82 232 -73 308 19 85
103 49 260 -73 316 -58 27 -141 25 -196 -4z"/>
<path d="M11110 4565 l0 -955 170 0 169 0 3 423 3 422 29 62 c33 73 104 144
174 176 65 29 199 35 275 13 70 -20 135 -69 166 -126 47 -84 51 -127 51 -562
l0 -408 171 0 170 0 -3 453 c-4 426 -5 456 -26 530 -60 217 -193 350 -402 403
-87 22 -280 15 -360 -14 -84 -29 -156 -69 -199 -107 -21 -19 -41 -35 -45 -35
-3 0 -6 153 -6 340 l0 340 -170 0 -170 0 0 -955z"/>
<path d="M9190 5008 c-93 -9 -189 -42 -258 -88 -57 -39 -133 -112 -145 -141
-5 -11 -10 -8 -24 11 -37 54 -124 130 -182 160 -89 44 -161 60 -279 60 -163 0
-265 -34 -377 -125 l-55 -45 0 75 0 75 -170 0 -170 0 0 -690 0 -690 170 0 169
0 3 423 c3 413 3 423 26 478 51 128 154 200 296 207 147 7 244 -53 297 -184
24 -59 24 -62 27 -491 l3 -433 169 0 170 0 0 403 c0 331 3 413 15 462 37 143
146 232 296 243 165 12 276 -66 320 -225 17 -61 19 -108 19 -475 l0 -408 171
0 170 0 -4 463 c-4 514 -4 511 -75 657 -100 205 -313 306 -582 278z"/>
<path d="M17245 5009 c-49 -3 -110 -12 -135 -19 -102 -28 -213 -101 -275 -182
l-30 -39 -18 23 c-124 157 -249 218 -449 218 -175 0 -295 -42 -391 -137 l-47
-46 0 81 0 82 -165 0 -165 0 0 -690 0 -690 165 0 165 0 0 383 c0 290 4 398 14
449 26 119 74 188 168 238 80 43 185 52 268 25 67 -22 132 -86 167 -162 33
-71 42 -212 39 -636 l-1 -297 168 0 167 0 0 388 c0 237 4 411 11 447 30 164
139 263 300 273 159 9 264 -63 315 -219 16 -47 18 -105 22 -471 l3 -418 165 0
165 0 -3 463 c-4 429 -5 467 -24 532 -45 156 -136 277 -251 337 -121 63 -195
77 -348 67z"/>
<path d="M13335 4991 c-173 -50 -336 -184 -414 -342 -53 -107 -71 -194 -71
-344 -1 -130 8 -191 39 -281 75 -211 271 -382 489 -424 78 -16 268 -7 335 14
75 24 161 74 211 122 26 24 49 44 52 44 3 0 4 -38 3 -85 l-4 -85 164 0 163 0
-4 688 -4 687 -162 3 -162 2 0 -88 0 -88 -58 56 c-64 60 -139 102 -228 125
-81 21 -270 19 -349 -4z m381 -292 c155 -58 254 -213 254 -399 0 -216 -133
-389 -320 -417 -258 -39 -470 152 -470 422 1 130 38 230 117 308 109 109 269
142 419 86z"/>
<path d="M18929 4995 c-85 -21 -165 -63 -225 -118 l-54 -49 0 81 0 81 -166 0
-165 0 2 -690 2 -690 164 0 163 0 0 383 c0 419 6 475 57 569 115 212 460 211
560 -3 39 -84 43 -135 43 -549 l0 -400 164 0 165 0 4 418 c4 446 6 464 58 548
73 119 237 173 390 128 69 -20 147 -97 174 -170 19 -52 23 -142 28 -669 l2
-250 168 -3 168 -2 -3 462 c-4 436 -5 467 -25 540 -52 184 -154 301 -320 365
-90 34 -281 44 -387 19 -118 -28 -224 -90 -297 -175 l-42 -49 -38 48 c-104
132 -239 191 -434 189 -55 0 -125 -7 -156 -14z"/>
<path d="M10310 4300 l0 -690 168 0 167 0 -2 668 c-2 367 -3 677 -3 690 0 22
-1 22 -165 22 l-165 0 0 -690z"/>
<path d="M14770 4300 l0 -690 165 0 165 0 0 690 0 690 -165 0 -165 0 0 -690z"/>
</g>
</svg>
